<svg width="48" height="48" viewBox="0 0 48 48" fill="none" xmlns="http://www.w3.org/2000/svg">
<path d="M16 6C12.287 6 8.72601 7.475 6.1005 10.1005C3.475 12.726 2 16.287 2 20C2 23.713 3.475 27.274 6.1005 29.8995C8.72601 32.525 12.287 34 16 34H18.14C17.9485 32.6735 17.9485 31.3265 18.14 30H16C13.3478 30 10.8043 28.9464 8.92893 27.0711C7.05357 25.1957 6 22.6522 6 20C6 17.3478 7.05357 14.8043 8.92893 12.9289C10.8043 11.0536 13.3478 10 16 10H32C33.483 9.9997 34.9476 10.3293 36.2875 10.9648C37.6275 11.6004 38.8093 12.526 39.7474 13.6747C40.6854 14.8233 41.3563 16.1662 41.7113 17.6062C42.0663 19.0461 42.0966 20.5469 41.8 22C42.979 23.1548 43.9445 24.509 44.652 26C45.6643 23.8659 46.1202 21.5103 45.9772 19.1526C45.8342 16.7949 45.0971 14.5116 43.8343 12.5155C42.5715 10.5193 40.8242 8.87508 38.755 7.73587C36.6858 6.59667 34.3621 5.99951 32 6H16ZM32 26C30.4087 26 28.8826 26.6321 27.7574 27.7574C26.6321 28.8826 26 30.4087 26 32C26 33.5913 26.6321 35.1174 27.7574 36.2426C28.8826 37.3679 30.4087 38 32 38C33.5913 38 35.1174 37.3679 36.2426 36.2426C37.3679 35.1174 38 33.5913 38 32C38 30.4087 37.3679 28.8826 36.2426 27.7574C35.1174 26.6321 33.5913 26 32 26ZM22 32C22.0004 30.4408 22.3653 28.9033 23.0657 27.5103C23.7661 26.1173 24.7825 24.9074 26.0338 23.9771C27.2851 23.0469 28.7366 22.4222 30.2723 22.1528C31.808 21.8834 33.3855 21.9769 34.8787 22.4257C36.3718 22.8745 37.7394 23.6663 38.8721 24.7378C40.0047 25.8092 40.8712 27.1307 41.4022 28.5967C41.9332 30.0627 42.1141 31.6325 41.9303 33.1808C41.7466 34.7291 41.2034 36.213 40.344 37.514L45.414 42.586L42.586 45.414L37.514 40.344C36.0067 41.3403 34.2577 41.9095 32.4528 41.9913C30.6479 42.0731 28.8545 41.6644 27.2633 40.8086C25.672 39.9528 24.3424 38.6818 23.4157 37.1309C22.4889 35.5799 21.9997 33.8068 22 32Z" fill="black"/>
</svg>
