<svg width="48" height="48" viewBox="0 0 48 48" fill="none" xmlns="http://www.w3.org/2000/svg">
<path d="M34.5 12C34.1022 12 33.7206 12.158 33.4393 12.4393C33.158 12.7206 33 13.1022 33 13.5C33 13.8978 33.158 14.2794 33.4393 14.5607C33.7206 14.842 34.1022 15 34.5 15H40.5C40.8978 15 41.2794 14.842 41.5607 14.5607C41.842 14.2794 42 13.8978 42 13.5C42 13.1022 41.842 12.7206 41.5607 12.4393C41.2794 12.158 40.8978 12 40.5 12H34.5ZM33 19.5C33 19.1022 33.158 18.7206 33.4393 18.4393C33.7206 18.158 34.1022 18 34.5 18H40.5C40.8978 18 41.2794 18.158 41.5607 18.4393C41.842 18.7206 42 19.1022 42 19.5C42 19.8978 41.842 20.2794 41.5607 20.5607C41.2794 20.842 40.8978 21 40.5 21H34.5C34.1022 21 33.7206 20.842 33.4393 20.5607C33.158 20.2794 33 19.8978 33 19.5ZM34.5 24C34.1022 24 33.7206 24.158 33.4393 24.4393C33.158 24.7206 33 25.1022 33 25.5C33 25.8978 33.158 26.2794 33.4393 26.5607C33.7206 26.842 34.1022 27 34.5 27H40.5C40.8978 27 41.2794 26.842 41.5607 26.5607C41.842 26.2794 42 25.8978 42 25.5C42 25.1022 41.842 24.7206 41.5607 24.4393C41.2794 24.158 40.8978 24 40.5 24H34.5Z" fill="black"/>
<path fill-rule="evenodd" clip-rule="evenodd" d="M9 3C4.02 3 0 7.02 0 12V36C0 40.98 4.02 45 9 45H39C43.98 45 48 40.98 48 36V12C48 7.02 43.98 3 39 3H9ZM39 6H30V42H39C42.3 42 45 39.315 45 36V12C45 8.7 42.315 6 39 6ZM9 6H27V42H9C5.7 42 3 39.315 3 36V12C3 8.7 5.685 6 9 6Z" fill="black"/>
</svg>
