<svg width="48" height="48" viewBox="0 0 48 48" fill="none" xmlns="http://www.w3.org/2000/svg">
<path d="M9.232 38C8.31067 38 7.542 37.692 6.926 37.076C6.31 36.46 6.00133 35.6907 6 34.768V13.232C6 12.3107 6.30867 11.542 6.926 10.926C7.54333 10.31 8.31133 10.0013 9.23 10H38.77C39.69 10 40.458 10.3087 41.074 10.926C41.69 11.5433 41.9987 12.312 42 13.232V34.77C42 35.69 41.6913 36.4587 41.074 37.076C40.4567 37.6933 39.6887 38.0013 38.77 38H9.232ZM9.232 36H30V28.232H8V34.77C8 35.0767 8.128 35.3587 8.384 35.616C8.64 35.8733 8.922 36.0013 9.23 36M32 36H38.77C39.0767 36 39.3587 35.872 39.616 35.616C39.8733 35.36 40.0013 35.0773 40 34.768V18.462H32V36ZM8 26.232H30V18.46H8V26.232Z" fill="black"/>
</svg>
