<svg width="20" height="20" viewBox="0 0 20 20" fill="none" xmlns="http://www.w3.org/2000/svg">
<path d="M9.99996 1.6665C14.6025 1.6665 18.3333 5.39734 18.3333 9.99984C18.3333 14.6023 14.6025 18.3332 9.99996 18.3332C5.39746 18.3332 1.66663 14.6023 1.66663 9.99984C1.66663 5.39734 5.39746 1.6665 9.99996 1.6665ZM9.99996 3.33317C8.23185 3.33317 6.53616 4.03555 5.28591 5.28579C4.03567 6.53604 3.33329 8.23173 3.33329 9.99984C3.33329 11.7679 4.03567 13.4636 5.28591 14.7139C6.53616 15.9641 8.23185 16.6665 9.99996 16.6665C11.7681 16.6665 13.4638 15.9641 14.714 14.7139C15.9642 13.4636 16.6666 11.7679 16.6666 9.99984C16.6666 8.23173 15.9642 6.53604 14.714 5.28579C13.4638 4.03555 11.7681 3.33317 9.99996 3.33317ZM9.99996 5.83317C10.5911 5.83309 11.1754 5.95877 11.7142 6.20187C12.253 6.44497 12.7339 6.79993 13.125 7.24317C13.2713 7.40893 13.3457 7.62602 13.332 7.84669C13.3182 8.06736 13.2174 8.27353 13.0516 8.41984C12.8859 8.56615 12.6688 8.64062 12.4481 8.62687C12.2274 8.61311 12.0213 8.51226 11.875 8.3465C11.5391 7.96558 11.0952 7.69597 10.6024 7.57356C10.1095 7.45114 9.59106 7.48173 9.11601 7.66124C8.64096 7.84075 8.23185 8.16068 7.94312 8.57845C7.65439 8.99621 7.49973 9.492 7.49973 9.99984C7.49973 10.5077 7.65439 11.0035 7.94312 11.4212C8.23185 11.839 8.64096 12.1589 9.11601 12.3384C9.59106 12.5179 10.1095 12.5485 10.6024 12.4261C11.0952 12.3037 11.5391 12.0341 11.875 11.6532C12.0213 11.4874 12.2274 11.3866 12.4481 11.3728C12.6688 11.3591 12.8859 11.4335 13.0516 11.5798C13.2174 11.7261 13.3182 11.9323 13.332 12.153C13.3457 12.3737 13.2713 12.5907 13.125 12.7565C12.6644 13.2786 12.0803 13.6769 11.4261 13.9151C10.7719 14.1532 10.0685 14.2237 9.38005 14.12C8.69161 14.0164 8.04013 13.7418 7.48512 13.3215C6.93011 12.9012 6.48925 12.3486 6.20284 11.714C5.91642 11.0795 5.79356 10.3833 5.8455 9.68901C5.89743 8.99476 6.1225 8.32458 6.50014 7.7397C6.87778 7.15483 7.39595 6.6739 8.00732 6.34086C8.61869 6.00781 9.30376 5.83327 9.99996 5.83317Z" fill="#4E4D4D"/>
</svg>
