<svg width="52" height="52" viewBox="0 0 52 52" fill="none" xmlns="http://www.w3.org/2000/svg">
<path d="M12.6252 41.1667V39H39.3748V41.1667H12.6252ZM12.4995 34.918L9.36217 18.3625C9.28994 18.3914 9.20906 18.4073 9.1195 18.4102C9.0285 18.4145 8.94689 18.4167 8.87467 18.4167C8.19433 18.4167 7.62883 18.1856 7.17817 17.7233C6.7275 17.2611 6.50144 16.7007 6.5 16.042C6.5 15.3588 6.72606 14.7781 7.17817 14.3C7.62883 13.8233 8.19506 13.585 8.87683 13.585C9.55861 13.585 10.1386 13.8233 10.6167 14.3C11.0933 14.7781 11.3317 15.3588 11.3317 16.042C11.3317 16.1922 11.3259 16.3316 11.3143 16.4602C11.3028 16.5887 11.2602 16.7158 11.1865 16.8415L18.1242 19.6257L24.5613 10.8615C24.2479 10.6564 23.9994 10.3848 23.816 10.0468C23.6326 9.71028 23.5408 9.347 23.5408 8.957C23.5408 8.27522 23.7799 7.69528 24.258 7.21717C24.7347 6.73906 25.3146 6.5 25.9978 6.5C26.6796 6.5 27.2603 6.73833 27.7398 7.215C28.2194 7.69167 28.4592 8.26944 28.4592 8.94833C28.4592 9.35856 28.3674 9.72833 28.184 10.0577C28.0006 10.3899 27.7521 10.6578 27.4387 10.8615L33.8737 19.6257L40.8135 16.8415C40.7745 16.7259 40.7406 16.5996 40.7117 16.4623C40.6828 16.3237 40.6683 16.1836 40.6683 16.042C40.6683 15.3588 40.8937 14.7781 41.3443 14.3C41.795 13.8233 42.3612 13.585 43.043 13.585C43.7248 13.585 44.3047 13.8233 44.7828 14.3C45.2609 14.7781 45.5 15.3588 45.5 16.042C45.5 16.6978 45.2602 17.2575 44.7807 17.7212C44.3011 18.1848 43.719 18.4167 43.0343 18.4167C42.9794 18.4167 42.9173 18.408 42.848 18.3907C42.7787 18.3733 42.7036 18.3639 42.6227 18.3625L39.5005 34.9158L12.4995 34.918ZM14.3498 32.7513H37.6502L40.3087 19.4545L33.1218 22.321L26 12.5753L18.8803 22.321L11.6913 19.4545L14.3498 32.7513Z" fill="white"/>
</svg>
