<svg width="21" height="20" viewBox="0 0 21 20" fill="none" xmlns="http://www.w3.org/2000/svg">
<path d="M11 9.41667V19.3333M11 19.3333L14.5 15.8333M11 19.3333L7.50001 15.8333M6.33334 4.20867C7.20595 4.33481 8.01429 4.74001 8.63751 5.36367M17.4167 12.3333C19.1888 12.3333 20.3333 10.8972 20.3333 9.125C20.3333 8.42339 20.1032 7.74114 19.6784 7.18275C19.2536 6.62435 18.6575 6.2206 17.9813 6.03334C17.8773 4.72487 17.335 3.48973 16.4421 2.52761C15.5493 1.56549 14.358 0.932626 13.0609 0.731334C11.7639 0.530041 10.4368 0.772088 9.29433 1.41834C8.15185 2.06459 7.26072 3.07728 6.76501 4.29267C5.72134 4.00336 4.60549 4.1405 3.66293 4.67392C2.72037 5.20733 2.02832 6.09333 1.73901 7.137C1.4497 8.18067 1.58684 9.29652 2.12026 10.2391C2.65367 11.1816 3.53967 11.8737 4.58334 12.163" stroke="#6800F9" stroke-width="1.33333" stroke-linecap="round" stroke-linejoin="round"/>
</svg>
