<svg width="40" height="40" viewBox="0 0 40 40" fill="none" xmlns="http://www.w3.org/2000/svg">
<circle cx="20" cy="20" r="17.1429" fill="white"/>
<path d="M40 20C40 31.0457 31.0457 40 20 40C8.9543 40 0 31.0457 0 20C0 8.9543 8.9543 0 20 0C31.0457 0 40 8.9543 40 20ZM7.46213 20C7.46213 26.9245 13.0755 32.5379 20 32.5379C26.9245 32.5379 32.5379 26.9245 32.5379 20C32.5379 13.0755 26.9245 7.46213 20 7.46213C13.0755 7.46213 7.46213 13.0755 7.46213 20Z" fill="#6800F9"/>
<path d="M15.7597 12.365C16.4715 12.6246 17.1484 12.9847 17.7729 13.4359C18.6554 13.1918 19.5629 13.0693 20.4738 13.0714C21.4145 13.0714 22.3221 13.1984 23.1728 13.4349C23.797 12.9841 24.4736 12.6243 25.185 12.365C25.8453 12.1224 26.786 11.7292 27.345 12.3978C27.7239 12.8523 27.8186 13.6141 27.8859 14.1956C27.9617 14.8447 27.9797 15.6903 27.7808 16.5299C28.5415 17.5916 29 18.858 29 20.2381C29 22.3287 27.9522 24.1439 26.4014 25.4012C25.6547 25.998 24.827 26.4663 23.9477 26.7895C24.1505 27.2911 24.2632 27.846 24.2632 28.4286V31.5C24.2632 31.7715 24.1634 32.0319 23.9857 32.2239C23.8081 32.4159 23.5671 32.5238 23.3159 32.5238H17.6317C17.3805 32.5238 17.1395 32.4159 16.9618 32.2239C16.7842 32.0319 16.6844 31.7715 16.6844 31.5V30.4854C15.7796 30.6052 15.0208 30.4987 14.3757 30.2028C13.7011 29.8936 13.2312 29.4145 12.8779 28.9558C12.5425 28.5217 12.1768 27.543 11.6482 27.3526C11.5301 27.3101 11.421 27.2429 11.3269 27.1548C11.2329 27.0667 11.1559 26.9595 11.1002 26.8392C10.9877 26.5963 10.9691 26.3151 11.0485 26.0574C11.1279 25.7997 11.2988 25.5867 11.5235 25.4652C11.7483 25.3436 12.0085 25.3236 12.2469 25.4094C12.8779 25.6366 13.289 26.1281 13.5704 26.5233C14.0251 27.158 14.3946 27.9873 15.1146 28.318C15.4111 28.4542 15.8459 28.5432 16.5262 28.4429L16.6844 28.4081C16.6865 27.851 16.7939 27.3002 16.9998 26.7895C16.1206 26.4663 15.2929 25.998 14.5462 25.4012C12.9954 24.1439 11.9476 22.3297 11.9476 20.2381C11.9476 18.8601 12.4051 17.5946 13.164 16.534C12.965 15.6944 12.9821 14.8467 13.0579 14.1966L13.0626 14.1577C13.1318 13.5618 13.2123 12.8605 13.5988 12.3978C14.1578 11.7292 15.0994 12.1234 15.7588 12.366L15.7597 12.365Z" fill="#6800F9"/>
</svg>
